<?xml version="1.0" standalone="no"?>
<!DOCTYPE svg PUBLIC "-//W3C//DTD SVG 20010904//EN"
 "http://www.w3.org/TR/2001/REC-SVG-20010904/DTD/svg10.dtd">
<svg version="1.0" xmlns="http://www.w3.org/2000/svg"
 width="184.000000pt" height="184.000000pt" viewBox="0 0 184.000000 184.000000"
 preserveAspectRatio="xMidYMid meet">
<metadata>
Created by potrace 1.14, written by Peter Selinger 2001-2017
</metadata>
<g transform="translate(0.000000,184.000000) scale(0.100000,-0.100000)"
fill="#000000" stroke="none">
<path d="M280 1580 l0 -40 -40 0 -40 0 0 -480 0 -480 -40 0 -40 0 0 40 0 40
-40 0 -40 0 0 -40 0 -40 40 0 40 0 0 -40 0 -40 40 0 40 0 0 -120 0 -120 40 0
40 0 0 -40 0 -40 760 0 760 0 0 80 0 80 -40 0 -40 0 0 -40 0 -40 -40 0 -40 0
0 120 0 120 40 0 40 0 0 40 0 40 40 0 40 0 0 40 0 40 -40 0 -40 0 0 -40 0 -40
-40 0 -40 0 0 480 0 480 -40 0 -40 0 0 40 0 40 -640 0 -640 0 0 -40z m1280
-680 l0 -640 -160 0 -160 0 0 40 0 40 -40 0 -40 0 0 -40 0 -40 -240 0 -240 0
0 640 0 640 440 0 440 0 0 -640z"/>
<path d="M920 1180 l0 -40 40 0 40 0 0 40 0 40 -40 0 -40 0 0 -40z"/>
<path d="M1320 1180 l0 -40 40 0 40 0 0 40 0 40 -40 0 -40 0 0 -40z"/>
<path d="M1080 1060 l0 -80 80 0 80 0 0 80 0 80 -80 0 -80 0 0 -80z"/>
<path d="M840 700 l0 -40 40 0 40 0 0 40 0 40 -40 0 -40 0 0 -40z"/>
<path d="M1080 700 l0 -40 200 0 200 0 0 40 0 40 -200 0 -200 0 0 -40z"/>
<path d="M920 540 l0 -40 80 0 80 0 0 40 0 40 -80 0 -80 0 0 -40z"/>
<path d="M920 380 l0 -40 80 0 80 0 0 40 0 40 -80 0 -80 0 0 -40z"/>
</g>
</svg>
